<svg xmlns="http://www.w3.org/2000/svg" xmlns:xlink="http://www.w3.org/1999/xlink" version="1.1" x="0px" y="0px" viewBox="0 0 50 50" style="enable-background:new 0 0 50 50;" xml:space="preserve">
  <path d="M44.2,13.5h-3v-2.9h-2.9v-0.1V7.6h-8.8v3h-2.9v2.9h-3v-2.9h-3v-0.1V7.6h-8.7v3h-3v2.9H6v11.7h2.9v0.1v2.9h3v2.9h2.9l0,0v0.1  v2.9h2.9V37h3v2.9h2.9V43h2.9v-3v-0.1h3V37h2.9v-2.9h2.9v-2.9v-0.1h3v-2.9h2.9v-3l0,0h3C44.2,25.2,44.2,13.5,44.2,13.5z" />
  <title>Heart by ATOM from the Noun Project</title>
</svg>